<svg width="800" height="600" viewBox="0 0 800 600" fill="none" xmlns="http://www.w3.org/2000/svg">
  <!-- Background -->
  <rect width="800" height="600" fill="#F8F9FA"/>
  
  <!-- City Skyline -->
  <path d="M0 400H800V600H0V400Z" fill="#0E2148"/>
  <path d="M0 400H800V410C800 410 700 440 600 420C500 400 400 440 300 420C200 400 100 440 0 410V400Z" fill="#483AA0"/>
  
  <!-- Buildings -->
  <rect x="50" y="280" width="80" height="120" fill="#7965C1"/>
  <rect x="55" y="290" width="15" height="20" fill="#E3D095"/>
  <rect x="80" y="290" width="15" height="20" fill="#E3D095"/>
  <rect x="55" y="320" width="15" height="20" fill="#E3D095"/>
  <rect x="80" y="320" width="15" height="20" fill="#E3D095"/>
  <rect x="55" y="350" width="15" height="20" fill="#E3D095"/>
  <rect x="80" y="350" width="15" height="20" fill="#E3D095"/>
  
  <rect x="150" y="250" width="100" height="150" fill="#483AA0"/>
  <rect x="160" y="260" width="20" height="25" fill="#E3D095"/>
  <rect x="190" y="260" width="20" height="25" fill="#E3D095"/>
  <rect x="220" y="260" width="20" height="25" fill="#E3D095"/>
  <rect x="160" y="295" width="20" height="25" fill="#E3D095"/>
  <rect x="190" y="295" width="20" height="25" fill="#E3D095"/>
  <rect x="220" y="295" width="20" height="25" fill="#E3D095"/>
  <rect x="160" y="330" width="20" height="25" fill="#E3D095"/>
  <rect x="190" y="330" width="20" height="25" fill="#E3D095"/>
  <rect x="220" y="330" width="20" height="25" fill="#E3D095"/>
  <rect x="160" y="365" width="20" height="25" fill="#E3D095"/>
  <rect x="190" y="365" width="20" height="25" fill="#E3D095"/>
  <rect x="220" y="365" width="20" height="25" fill="#E3D095"/>
  
  <rect x="280" y="300" width="70" height="100" fill="#7965C1"/>
  <rect x="290" y="310" width="15" height="15" fill="#E3D095"/>
  <rect x="315" y="310" width="15" height="15" fill="#E3D095"/>
  <rect x="290" y="335" width="15" height="15" fill="#E3D095"/>
  <rect x="315" y="335" width="15" height="15" fill="#E3D095"/>
  <rect x="290" y="360" width="15" height="15" fill="#E3D095"/>
  <rect x="315" y="360" width="15" height="15" fill="#E3D095"/>
  
  <rect x="370" y="230" width="120" height="170" fill="#0E2148"/>
  <rect x="380" y="240" width="20" height="20" fill="#E3D095"/>
  <rect x="410" y="240" width="20" height="20" fill="#E3D095"/>
  <rect x="440" y="240" width="20" height="20" fill="#E3D095"/>
  <rect x="380" y="270" width="20" height="20" fill="#E3D095"/>
  <rect x="410" y="270" width="20" height="20" fill="#E3D095"/>
  <rect x="440" y="270" width="20" height="20" fill="#E3D095"/>
  <rect x="380" y="300" width="20" height="20" fill="#E3D095"/>
  <rect x="410" y="300" width="20" height="20" fill="#E3D095"/>
  <rect x="440" y="300" width="20" height="20" fill="#E3D095"/>
  <rect x="380" y="330" width="20" height="20" fill="#E3D095"/>
  <rect x="410" y="330" width="20" height="20" fill="#E3D095"/>
  <rect x="440" y="330" width="20" height="20" fill="#E3D095"/>
  <rect x="380" y="360" width="20" height="20" fill="#E3D095"/>
  <rect x="410" y="360" width="20" height="20" fill="#E3D095"/>
  <rect x="440" y="360" width="20" height="20" fill="#E3D095"/>
  
  <rect x="510" y="270" width="90" height="130" fill="#483AA0"/>
  <rect x="520" y="280" width="15" height="20" fill="#E3D095"/>
  <rect x="545" y="280" width="15" height="20" fill="#E3D095"/>
  <rect x="570" y="280" width="15" height="20" fill="#E3D095"/>
  <rect x="520" y="310" width="15" height="20" fill="#E3D095"/>
  <rect x="545" y="310" width="15" height="20" fill="#E3D095"/>
  <rect x="570" y="310" width="15" height="20" fill="#E3D095"/>
  <rect x="520" y="340" width="15" height="20" fill="#E3D095"/>
  <rect x="545" y="340" width="15" height="20" fill="#E3D095"/>
  <rect x="570" y="340" width="15" height="20" fill="#E3D095"/>
  <rect x="520" y="370" width="15" height="20" fill="#E3D095"/>
  <rect x="545" y="370" width="15" height="20" fill="#E3D095"/>
  <rect x="570" y="370" width="15" height="20" fill="#E3D095"/>
  
  <rect x="620" y="320" width="60" height="80" fill="#7965C1"/>
  <rect x="630" y="330" width="10" height="15" fill="#E3D095"/>
  <rect x="650" y="330" width="10" height="15" fill="#E3D095"/>
  <rect x="630" y="355" width="10" height="15" fill="#E3D095"/>
  <rect x="650" y="355" width="10" height="15" fill="#E3D095"/>
  <rect x="630" y="380" width="10" height="15" fill="#E3D095"/>
  <rect x="650" y="380" width="10" height="15" fill="#E3D095"/>
  
  <rect x="700" y="290" width="80" height="110" fill="#0E2148"/>
  <rect x="710" y="300" width="15" height="15" fill="#E3D095"/>
  <rect x="735" y="300" width="15" height="15" fill="#E3D095"/>
  <rect x="760" y="300" width="15" height="15" fill="#E3D095"/>
  <rect x="710" y="325" width="15" height="15" fill="#E3D095"/>
  <rect x="735" y="325" width="15" height="15" fill="#E3D095"/>
  <rect x="760" y="325" width="15" height="15" fill="#E3D095"/>
  <rect x="710" y="350" width="15" height="15" fill="#E3D095"/>
  <rect x="735" y="350" width="15" height="15" fill="#E3D095"/>
  <rect x="760" y="350" width="15" height="15" fill="#E3D095"/>
  <rect x="710" y="375" width="15" height="15" fill="#E3D095"/>
  <rect x="735" y="375" width="15" height="15" fill="#E3D095"/>
  <rect x="760" y="375" width="15" height="15" fill="#E3D095"/>
  
  <!-- Road -->
  <rect x="0" y="400" width="800" height="50" fill="#333333"/>
  <rect x="40" y="423" width="50" height="5" fill="white"/>
  <rect x="140" y="423" width="50" height="5" fill="white"/>
  <rect x="240" y="423" width="50" height="5" fill="white"/>
  <rect x="340" y="423" width="50" height="5" fill="white"/>
  <rect x="440" y="423" width="50" height="5" fill="white"/>
  <rect x="540" y="423" width="50" height="5" fill="white"/>
  <rect x="640" y="423" width="50" height="5" fill="white"/>
  <rect x="740" y="423" width="50" height="5" fill="white"/>
  
  <!-- Pothole in the road -->
  <circle cx="290" cy="423" r="15" fill="#222222" stroke="#444444" stroke-width="2"/>
  <ellipse cx="290" cy="423" rx="12" ry="8" fill="#111111"/>
  
  <!-- Broken streetlight -->
  <rect x="490" y="350" width="6" height="50" fill="#555555"/>
  <circle cx="493" cy="350" r="10" fill="#777777"/>
  <path d="M488 345L498 345" stroke="#FFCC00" stroke-width="2" stroke-dasharray="2 2"/>
  
  <!-- Trash pile -->
  <rect x="600" y="390" width="20" height="10" fill="#8B4513"/>
  <rect x="595" y="385" width="15" height="8" fill="#A0522D"/>
  <rect x="610" y="388" width="12" height="6" fill="#8B4513"/>
  <rect x="605" y="382" width="8" height="6" fill="#A0522D"/>
  
  <!-- Location pin highlighting issue -->
  <circle cx="290" cy="423" r="25" fill="rgba(255, 0, 0, 0.3)"/>
  <path d="M290 398C285 398 280 400 276 403C272 407 270 412 270 417C270 426 290 448 290 448C290 448 310 426 310 417C310 412 308 407 304 403C300 400 295 398 290 398Z" fill="#ff6b6b"/>
  <circle cx="290" cy="417" r="5" fill="white"/>
  
  <!-- Location pin highlighting fixed issue -->
  <circle cx="600" cy="390" r="25" fill="rgba(0, 255, 0, 0.2)"/>
  <path d="M600 365C595 365 590 367 586 370C582 374 580 379 580 384C580 393 600 415 600 415C600 415 620 393 620 384C620 379 618 374 614 370C610 367 605 365 600 365Z" fill="#1dd1a1"/>
  <path d="M595 384L598 388L606 380" stroke="white" stroke-width="2" stroke-linecap="round" stroke-linejoin="round"/>
  
  <!-- Location pin highlighting in-progress issue -->
  <circle cx="493" cy="350" r="25" fill="rgba(255, 193, 7, 0.2)"/>
  <path d="M493 325C488 325 483 327 479 330C475 334 473 339 473 344C473 353 493 375 493 375C493 375 513 353 513 344C513 339 511 334 507 330C503 327 498 325 493 325Z" fill="#feca57"/>
  <circle cx="493" cy="344" r="5" fill="white"/>
  
  <!-- Smartphone with the application -->
  <rect x="650" y="100" width="100" height="180" rx="10" fill="#333333"/>
  <rect x="660" y="120" width="80" height="140" rx="5" fill="#F8F9FA"/>
  <circle cx="700" cy="110" r="3" fill="#555555"/>
  <rect x="697" y="275" width="6" height="6" rx="3" fill="#555555"/>
  
  <!-- App interface on smartphone -->
  <rect x="670" y="130" width="60" height="10" rx="2" fill="#0E2148"/>
  <rect x="670" y="145" width="60" height="5" rx="1" fill="#7965C1"/>
  <rect x="670" y="155" width="30" height="30" rx="2" fill="#E3D095"/>
  <rect x="705" y="155" width="25" height="30" rx="2" fill="#E3D095"/>
  <rect x="670" y="190" width="60" height="5" rx="1" fill="#7965C1"/>
  <rect x="670" y="200" width="60" height="5" rx="1" fill="#7965C1"/>
  <rect x="670" y="210" width="60" height="5" rx="1" fill="#7965C1"/>
  <rect x="670" y="220" width="40" height="5" rx="1" fill="#7965C1"/>
  <rect x="670" y="240" width="25" height="10" rx="5" fill="#483AA0"/>
  
  <!-- Large report button -->
  <circle cx="200" cy="150" r="80" fill="#483AA0"/>
  <circle cx="200" cy="150" r="70" fill="#0E2148"/>
  <circle cx="200" cy="150" r="60" fill="#7965C1"/>
  <path d="M160 150L240 150" stroke="#E3D095" stroke-width="8" stroke-linecap="round"/>
  <path d="M200 110L200 190" stroke="#E3D095" stroke-width="8" stroke-linecap="round"/>
  
  <!-- Alert indicators -->
  <circle cx="350" cy="150" r="40" fill="#ff6b6b" opacity="0.8"/>
  <path d="M350 120L350 160" stroke="white" stroke-width="6" stroke-linecap="round"/>
  <circle cx="350" cy="175" r="3" fill="white"/>
  
  <circle cx="450" cy="150" r="40" fill="#feca57" opacity="0.8"/>
  <path d="M450 130C445 130 441 134 441 139C441 144 445 148 450 148C455 148 459 144 459 139C459 134 455 130 450 130Z" fill="white"/>
  <path d="M440 170C440 164 445 160 450 160C455 160 460 164 460 170" stroke="white" stroke-width="4" stroke-linecap="round"/>
  
  <circle cx="550" cy="150" r="40" fill="#1dd1a1" opacity="0.8"/>
  <path d="M535 150L545 160L565 140" stroke="white" stroke-width="4" stroke-linecap="round" stroke-linejoin="round"/>
</svg>