<svg width="200" height="200" viewBox="0 0 200 200" fill="none" xmlns="http://www.w3.org/2000/svg">
  <rect width="200" height="200" rx="100" fill="#0E2148"/>
  <circle cx="100" cy="100" r="70" fill="#483AA0" stroke="#7965C1" stroke-width="4"/>
  <path d="M100 40C83.1088 40 66.8352 46.3214 54.6447 58.5118C42.4543 70.7022 36.1328 86.9759 36.1328 103.867C36.1328 120.758 42.4543 137.032 54.6447 149.222C66.8352 161.413 83.1088 167.734 100 167.734C116.891 167.734 133.165 161.413 145.355 149.222C157.546 137.032 163.867 120.758 163.867 103.867C163.867 86.9759 157.546 70.7022 145.355 58.5118C133.165 46.3214 116.891 40 100 40V40Z" stroke="#E3D095" stroke-width="3"/>
  <path d="M100 65C94.0603 65 88.2389 66.5865 83.1195 69.5853C77.9991 72.5841 73.7878 76.8763 70.9012 82.0385C68.0135 87.2006 66.5599 93.0399 66.6881 98.9793C66.8162 104.919 68.5202 110.68 71.6418 115.703L100 159L128.358 115.703C131.48 110.68 133.184 104.919 133.312 98.9793C133.44 93.0399 131.986 87.2006 129.099 82.0385C126.212 76.8763 122.001 72.5841 116.881 69.5853C111.761 66.5865 105.94 65 100 65Z" fill="#E3D095" stroke="#0E2148" stroke-width="2"/>
  <circle cx="100" cy="100" r="12" fill="#0E2148"/>
  <path d="M80 159H120" stroke="#E3D095" stroke-width="4" stroke-linecap="round"/>
  <path d="M90 143L97 151L107 141" stroke="#0E2148" stroke-width="3" stroke-linecap="round" stroke-linejoin="round"/>
</svg>